<?xml version="1.0" encoding="UTF-8"?>
<svg xmlns="http://www.w3.org/2000/svg" xmlns:xlink="http://www.w3.org/1999/xlink" width="30pt" height="30.000001pt" viewBox="0 0 30 30.000001" version="1.2">
<defs>
<clipPath id="clip1">
  <path d="M 6.527344 2.132812 L 15 2.132812 L 15 12 L 6.527344 12 Z M 6.527344 2.132812 "/>
</clipPath>
<clipPath id="clip2">
  <path d="M 6.527344 2.132812 L 23.21875 2.132812 L 23.21875 26.8125 L 6.527344 26.8125 Z M 6.527344 2.132812 "/>
</clipPath>
</defs>
<g id="surface1">
<g clip-path="url(#clip1)" clip-rule="nonzero">
<path style=" stroke:none;fill-rule:nonzero;fill:rgb(0%,0%,0%);fill-opacity:1;" d="M 13.714844 11.441406 L 13.714844 9.273438 C 13.714844 8.996094 13.988281 8.757812 14.382812 8.644531 L 14.382812 2.140625 C 10.003906 2.378906 6.53125 5.777344 6.53125 9.933594 L 6.53125 11.441406 Z M 13.714844 11.441406 "/>
</g>
<g clip-path="url(#clip2)" clip-rule="nonzero">
<path style=" stroke:none;fill-rule:nonzero;fill:rgb(0%,0%,0%);fill-opacity:1;" d="M 15.222656 2.132812 L 15.222656 8.613281 C 15.6875 8.703125 16.027344 8.960938 16.027344 9.273438 L 16.027344 11.441406 L 23.15625 11.441406 L 23.15625 12.292969 L 16.027344 12.292969 L 16.027344 13.96875 C 16.027344 14.355469 15.511719 14.664062 14.871094 14.664062 C 14.234375 14.664062 13.714844 14.355469 13.714844 13.96875 L 13.714844 12.292969 L 6.53125 12.292969 L 6.53125 19.003906 C 6.53125 23.316406 10.265625 26.8125 14.871094 26.8125 C 19.480469 26.8125 23.214844 23.316406 23.214844 19.003906 L 23.214844 9.933594 C 23.214844 5.730469 19.667969 2.304688 15.222656 2.132812 Z M 15.222656 2.132812 "/>
</g>
<path style=" stroke:none;fill-rule:nonzero;fill:rgb(0%,0%,0%);fill-opacity:1;" d="M 14.265625 9.707031 C 14.265625 9.394531 14.535156 9.140625 14.871094 9.140625 C 15.207031 9.140625 15.480469 9.394531 15.480469 9.707031 L 15.480469 13.535156 C 15.480469 13.851562 15.207031 14.101562 14.871094 14.101562 C 14.535156 14.101562 14.265625 13.851562 14.265625 13.535156 Z M 14.265625 9.707031 "/>
</g>
</svg>
