<?xml version="1.0" encoding="UTF-8"?>
<svg xmlns="http://www.w3.org/2000/svg" xmlns:xlink="http://www.w3.org/1999/xlink" width="30pt" height="30.000001pt" viewBox="0 0 30 30.000001" version="1.2">
<defs>
<clipPath id="clip1">
  <path d="M 6.867188 18 L 15 18 L 15 26.988281 L 6.867188 26.988281 Z M 6.867188 18 "/>
</clipPath>
<clipPath id="clip2">
  <path d="M 6.867188 10 L 15 10 L 15 19 L 6.867188 19 Z M 6.867188 10 "/>
</clipPath>
<clipPath id="clip3">
  <path d="M 6.867188 2.3125 L 15 2.3125 L 15 11 L 6.867188 11 Z M 6.867188 2.3125 "/>
</clipPath>
<clipPath id="clip4">
  <path d="M 14 2.3125 L 22.546875 2.3125 L 22.546875 11 L 14 11 Z M 14 2.3125 "/>
</clipPath>
<clipPath id="clip5">
  <path d="M 14 10 L 22.546875 10 L 22.546875 19 L 14 19 Z M 14 10 "/>
</clipPath>
</defs>
<g id="surface1">
<g clip-path="url(#clip1)" clip-rule="nonzero">
<path style=" stroke:none;fill-rule:nonzero;fill:rgb(3.919983%,81.17981%,51.368713%);fill-opacity:1;" d="M 10.789062 27.257812 C 12.953125 27.257812 14.707031 25.394531 14.707031 23.101562 L 14.707031 18.945312 L 10.789062 18.945312 C 8.625 18.945312 6.867188 20.808594 6.867188 23.101562 C 6.867188 25.394531 8.625 27.257812 10.789062 27.257812 Z M 10.789062 27.257812 "/>
</g>
<g clip-path="url(#clip2)" clip-rule="nonzero">
<path style=" stroke:none;fill-rule:nonzero;fill:rgb(63.529968%,34.899902%,100%);fill-opacity:1;" d="M 6.867188 14.789062 C 6.867188 12.492188 8.625 10.632812 10.789062 10.632812 L 14.707031 10.632812 L 14.707031 18.945312 L 10.789062 18.945312 C 8.625 18.945312 6.867188 17.082031 6.867188 14.789062 Z M 6.867188 14.789062 "/>
</g>
<g clip-path="url(#clip3)" clip-rule="nonzero">
<path style=" stroke:none;fill-rule:nonzero;fill:rgb(94.898987%,30.589294%,11.759949%);fill-opacity:1;" d="M 6.867188 6.472656 C 6.867188 4.179688 8.625 2.316406 10.789062 2.316406 L 14.707031 2.316406 L 14.707031 10.632812 L 10.789062 10.632812 C 8.625 10.632812 6.867188 8.769531 6.867188 6.472656 Z M 6.867188 6.472656 "/>
</g>
<g clip-path="url(#clip4)" clip-rule="nonzero">
<path style=" stroke:none;fill-rule:nonzero;fill:rgb(100%,44.709778%,38.42926%);fill-opacity:1;" d="M 14.707031 2.316406 L 18.628906 2.316406 C 20.789062 2.316406 22.546875 4.179688 22.546875 6.472656 C 22.546875 8.769531 20.789062 10.632812 18.628906 10.632812 L 14.707031 10.632812 Z M 14.707031 2.316406 "/>
</g>
<g clip-path="url(#clip5)" clip-rule="nonzero">
<path style=" stroke:none;fill-rule:nonzero;fill:rgb(10.198975%,73.728943%,99.609375%);fill-opacity:1;" d="M 22.546875 14.789062 C 22.546875 17.082031 20.789062 18.945312 18.628906 18.945312 C 16.464844 18.945312 14.707031 17.082031 14.707031 14.789062 C 14.707031 12.492188 16.464844 10.632812 18.628906 10.632812 C 20.789062 10.632812 22.546875 12.492188 22.546875 14.789062 Z M 22.546875 14.789062 "/>
</g>
</g>
</svg>
