<?xml version="1.0" encoding="UTF-8"?>
<svg xmlns="http://www.w3.org/2000/svg" xmlns:xlink="http://www.w3.org/1999/xlink" width="30pt" height="30.000001pt" viewBox="0 0 30 30.000001" version="1.2">
<defs>
<clipPath id="clip1">
  <path d="M 2.699219 2.214844 L 27.375 2.214844 L 27.375 26.890625 L 2.699219 26.890625 Z M 2.699219 2.214844 "/>
</clipPath>
</defs>
<g id="surface1">
<g clip-path="url(#clip1)" clip-rule="nonzero">
<path style=" stroke:none;fill-rule:nonzero;fill:rgb(87.059021%,29.798889%,21.179199%);fill-opacity:1;" d="M 26.839844 13.503906 L 16.164062 2.828125 C 15.550781 2.210938 14.554688 2.210938 13.9375 2.828125 L 11.722656 5.042969 L 14.535156 7.855469 C 15.1875 7.636719 15.9375 7.785156 16.457031 8.304688 C 16.980469 8.828125 17.128906 9.585938 16.902344 10.242188 L 19.613281 12.953125 C 20.265625 12.726562 21.023438 12.871094 21.546875 13.394531 C 22.28125 14.128906 22.28125 15.3125 21.546875 16.046875 C 20.816406 16.777344 19.628906 16.777344 18.898438 16.046875 C 18.347656 15.492188 18.210938 14.6875 18.488281 14.007812 L 15.960938 11.480469 L 15.960938 18.132812 C 16.140625 18.21875 16.308594 18.335938 16.457031 18.484375 C 17.1875 19.21875 17.1875 20.402344 16.457031 21.136719 C 15.726562 21.867188 14.539062 21.867188 13.808594 21.136719 C 13.074219 20.402344 13.074219 19.21875 13.808594 18.484375 C 13.988281 18.304688 14.199219 18.167969 14.421875 18.078125 L 14.421875 11.363281 C 14.199219 11.273438 13.988281 11.136719 13.808594 10.953125 C 13.253906 10.402344 13.121094 9.585938 13.402344 8.90625 L 10.632812 6.132812 L 3.3125 13.453125 C 2.695312 14.070312 2.695312 15.066406 3.3125 15.679688 L 13.988281 26.355469 C 14.601562 26.972656 15.601562 26.972656 16.214844 26.355469 L 26.839844 15.730469 C 27.457031 15.117188 27.457031 14.117188 26.839844 13.503906 "/>
</g>
</g>
</svg>
