<?xml version="1.0" encoding="UTF-8"?>
<svg xmlns="http://www.w3.org/2000/svg" xmlns:xlink="http://www.w3.org/1999/xlink" width="30pt" height="30.000001pt" viewBox="0 0 30 30.000001" version="1.2">
<defs>
<clipPath id="clip1">
  <path d="M 2.804688 2.324219 L 27.484375 2.324219 L 27.484375 27 L 2.804688 27 Z M 2.804688 2.324219 "/>
</clipPath>
</defs>
<g id="surface1">
<g clip-path="url(#clip1)" clip-rule="nonzero">
<path style=" stroke:none;fill-rule:nonzero;fill:rgb(0%,0%,0%);fill-opacity:1;" d="M 15.292969 2.53125 C 8.398438 2.53125 2.804688 8.121094 2.804688 15.019531 C 2.804688 20.871094 6.835938 25.765625 12.269531 27.121094 C 12.210938 26.953125 12.171875 26.757812 12.171875 26.515625 L 12.171875 24.378906 C 11.664062 24.378906 10.816406 24.378906 10.601562 24.378906 C 9.75 24.378906 8.988281 24.011719 8.621094 23.332031 C 8.210938 22.570312 8.140625 21.410156 7.128906 20.703125 C 6.828125 20.464844 7.054688 20.195312 7.402344 20.230469 C 8.042969 20.414062 8.574219 20.851562 9.074219 21.503906 C 9.570312 22.15625 9.804688 22.304688 10.734375 22.304688 C 11.183594 22.304688 11.859375 22.277344 12.492188 22.179688 C 12.835938 21.3125 13.425781 20.511719 14.144531 20.136719 C 9.988281 19.707031 8.003906 17.640625 8.003906 14.832031 C 8.003906 13.621094 8.519531 12.453125 9.394531 11.46875 C 9.105469 10.488281 8.746094 8.492188 9.503906 7.734375 C 11.375 7.734375 12.503906 8.949219 12.777344 9.273438 C 13.710938 8.957031 14.734375 8.773438 15.808594 8.773438 C 16.886719 8.773438 17.914062 8.957031 18.851562 9.277344 C 19.117188 8.953125 20.25 7.734375 22.125 7.734375 C 22.886719 8.496094 22.523438 10.496094 22.234375 11.472656 C 23.101562 12.457031 23.613281 13.625 23.613281 14.832031 C 23.613281 17.636719 21.632812 19.707031 17.480469 20.136719 C 18.625 20.730469 19.457031 22.40625 19.457031 23.667969 L 19.457031 26.515625 C 19.457031 26.621094 19.433594 26.699219 19.421875 26.792969 C 24.285156 25.089844 27.78125 20.46875 27.78125 15.019531 C 27.78125 8.121094 22.191406 2.53125 15.292969 2.53125 Z M 15.292969 2.53125 "/>
</g>
</g>
</svg>
