<?xml version="1.0" encoding="UTF-8"?>
<svg xmlns="http://www.w3.org/2000/svg" xmlns:xlink="http://www.w3.org/1999/xlink" width="30pt" height="30.000001pt" viewBox="0 0 30 30.000001" version="1.2">
<defs>
<clipPath id="clip1">
  <path d="M 2.539062 10.867188 L 9 10.867188 L 9 18 L 2.539062 18 Z M 2.539062 10.867188 "/>
</clipPath>
<clipPath id="clip2">
  <path d="M 9 12 L 26.980469 12 L 26.980469 17 L 9 17 Z M 9 12 "/>
</clipPath>
</defs>
<g id="surface1">
<g clip-path="url(#clip1)" clip-rule="nonzero">
<path style=" stroke:none;fill-rule:nonzero;fill:rgb(40.388489%,38.42926%,65.098572%);fill-opacity:1;" d="M 7.789062 17.984375 L 3.402344 17.984375 C 3.03125 17.984375 2.726562 17.679688 2.726562 17.300781 L 2.726562 11.484375 C 2.726562 11.105469 3.03125 10.796875 3.402344 10.796875 L 7.789062 10.796875 C 8.160156 10.796875 8.464844 11.105469 8.464844 11.484375 L 8.464844 17.300781 C 8.464844 17.675781 8.160156 17.984375 7.789062 17.984375 Z M 7.789062 17.984375 "/>
</g>
<path style=" stroke:none;fill-rule:nonzero;fill:rgb(100%,100%,100%);fill-opacity:1;" d="M 6.324219 16.996094 L 6.324219 14.144531 C 6.324219 14.144531 6.503906 13.460938 4.058594 14.421875 C 4.054688 14.4375 4.054688 11.78125 4.054688 11.78125 L 4.855469 11.777344 L 4.855469 13.476562 C 4.855469 13.476562 7.09375 12.585938 7.09375 14.152344 L 7.09375 16.996094 Z M 6.777344 12.804688 L 5.929688 12.804688 C 6.234375 12.425781 6.511719 11.78125 6.511719 11.78125 L 7.390625 11.78125 C 7.390625 11.78125 7.238281 12.203125 6.777344 12.804688 Z M 4.066406 16.992188 L 4.066406 15.367188 L 4.871094 16.179688 Z M 4.066406 16.992188 "/>
<g clip-path="url(#clip2)" clip-rule="nonzero">
<path style=" stroke:none;fill-rule:nonzero;fill:rgb(40.388489%,38.42926%,65.098572%);fill-opacity:1;" d="M 11.628906 16.789062 L 11.628906 14.453125 C 11.628906 14.289062 11.511719 14.214844 11.371094 14.214844 C 11.035156 14.222656 10.71875 14.292969 10.414062 14.429688 L 10.414062 16.789062 L 9.761719 16.789062 L 9.761719 12.449219 L 10.414062 12.449219 L 10.414062 13.878906 C 10.722656 13.765625 11.09375 13.667969 11.460938 13.667969 C 12.054688 13.667969 12.277344 14.035156 12.277344 14.539062 L 12.277344 16.792969 Z M 13.496094 15.371094 C 13.515625 16.15625 13.671875 16.3125 14.148438 16.3125 C 14.523438 16.3125 14.949219 16.183594 15.273438 16.058594 L 15.382812 16.554688 C 15.035156 16.714844 14.609375 16.867188 14.117188 16.867188 C 13.03125 16.867188 12.863281 16.261719 12.863281 15.304688 C 12.863281 14.777344 12.902344 14.296875 13.027344 13.859375 C 13.351562 13.730469 13.789062 13.664062 14.335938 13.664062 C 15.226562 13.664062 15.5 14.164062 15.5 15.039062 L 15.5 15.375 L 13.496094 15.375 Z M 14.324219 14.214844 C 14.128906 14.214844 13.820312 14.21875 13.5625 14.269531 C 13.535156 14.402344 13.503906 14.582031 13.492188 14.917969 L 14.855469 14.917969 C 14.855469 14.460938 14.773438 14.214844 14.328125 14.214844 Z M 16.707031 14.425781 L 16.707031 16.789062 L 16.054688 16.789062 L 16.054688 14.132812 C 16.53125 13.886719 17.035156 13.746094 17.566406 13.710938 L 17.566406 14.261719 C 17.285156 14.28125 16.964844 14.316406 16.707031 14.429688 Z M 19.289062 16.863281 C 18.316406 16.863281 17.875 16.382812 17.875 15.277344 C 17.875 14.109375 18.457031 13.660156 19.289062 13.660156 C 20.261719 13.660156 20.703125 14.144531 20.703125 15.246094 C 20.703125 16.417969 20.121094 16.863281 19.289062 16.863281 Z M 19.289062 14.214844 C 18.789062 14.214844 18.511719 14.503906 18.511719 15.277344 C 18.511719 16.125 18.746094 16.3125 19.289062 16.3125 C 19.789062 16.3125 20.066406 16.027344 20.066406 15.253906 C 20.066406 14.40625 19.832031 14.214844 19.289062 14.214844 Z M 23.847656 16.789062 L 23.082031 16.789062 C 22.902344 16.304688 22.652344 15.796875 22.269531 15.382812 L 21.925781 15.382812 L 21.925781 16.789062 L 21.273438 16.789062 L 21.273438 12.449219 L 21.925781 12.449219 L 21.925781 14.941406 L 22.230469 14.941406 C 22.558594 14.589844 22.8125 14.191406 22.996094 13.746094 L 23.730469 13.746094 C 23.480469 14.253906 23.160156 14.707031 22.800781 15.074219 C 23.210938 15.609375 23.5625 16.179688 23.847656 16.792969 Z M 25.070312 16.863281 C 24.480469 16.863281 24.257812 16.496094 24.257812 15.992188 L 24.257812 13.742188 L 24.902344 13.742188 L 24.902344 16.078125 C 24.902344 16.242188 25.019531 16.3125 25.164062 16.3125 C 25.507812 16.308594 25.835938 16.234375 26.152344 16.097656 L 26.152344 13.742188 L 26.804688 13.742188 L 26.804688 16.390625 C 26.03125 16.816406 25.4375 16.867188 25.070312 16.867188 Z M 25.070312 16.863281 "/>
</g>
</g>
</svg>
