<?xml version="1.0" encoding="UTF-8"?>
<svg xmlns="http://www.w3.org/2000/svg" xmlns:xlink="http://www.w3.org/1999/xlink" width="30pt" height="30.000001pt" viewBox="0 0 30 30.000001" version="1.2">
<defs>
<clipPath id="clip1">
  <path d="M 1.785156 2.285156 L 27.621094 2.285156 L 27.621094 26.964844 L 1.785156 26.964844 Z M 1.785156 2.285156 "/>
</clipPath>
</defs>
<g id="surface1">
<g clip-path="url(#clip1)" clip-rule="nonzero">
<path style=" stroke:none;fill-rule:nonzero;fill:rgb(0%,84.709167%,100%);fill-opacity:1;" d="M 23.011719 10.535156 C 22.742188 10.441406 22.464844 10.347656 22.179688 10.261719 C 22.226562 10.0625 22.269531 9.867188 22.308594 9.671875 C 22.9375 6.496094 22.527344 3.9375 21.125 3.09375 C 19.777344 2.285156 17.578125 3.128906 15.359375 5.144531 C 15.144531 5.335938 14.929688 5.542969 14.714844 5.757812 C 14.574219 5.613281 14.429688 5.476562 14.289062 5.34375 C 11.960938 3.191406 9.628906 2.285156 8.226562 3.128906 C 6.882812 3.941406 6.484375 6.347656 7.050781 9.355469 C 7.105469 9.648438 7.167969 9.945312 7.242188 10.246094 C 6.910156 10.34375 6.589844 10.449219 6.285156 10.558594 C 3.558594 11.550781 1.8125 13.105469 1.8125 14.714844 C 1.8125 16.378906 3.683594 18.050781 6.527344 19.0625 C 6.753906 19.140625 6.984375 19.21875 7.226562 19.289062 C 7.148438 19.613281 7.078125 19.933594 7.023438 20.246094 C 6.484375 23.207031 6.90625 25.554688 8.246094 26.359375 C 9.628906 27.191406 11.953125 26.335938 14.214844 24.277344 C 14.394531 24.113281 14.574219 23.941406 14.75 23.761719 C 14.984375 23.996094 15.21875 24.214844 15.449219 24.421875 C 17.640625 26.386719 19.804688 27.179688 21.140625 26.375 C 22.523438 25.539062 22.976562 23.015625 22.390625 19.945312 C 22.347656 19.710938 22.292969 19.472656 22.238281 19.226562 C 22.398438 19.175781 22.558594 19.125 22.714844 19.070312 C 25.671875 18.050781 27.59375 16.402344 27.59375 14.714844 C 27.59375 13.097656 25.796875 11.535156 23.011719 10.535156 Z M 22.371094 17.984375 C 22.230469 18.03125 22.085938 18.078125 21.9375 18.125 C 21.609375 17.046875 21.171875 15.902344 20.628906 14.722656 C 21.144531 13.566406 21.570312 12.4375 21.886719 11.367188 C 22.148438 11.449219 22.40625 11.53125 22.652344 11.621094 C 25.039062 12.476562 26.492188 13.742188 26.492188 14.714844 C 26.492188 15.753906 24.921875 17.101562 22.371094 17.984375 Z M 21.3125 20.167969 C 21.570312 21.527344 21.605469 22.753906 21.433594 23.714844 C 21.28125 24.574219 20.972656 25.148438 20.589844 25.378906 C 19.777344 25.871094 18.039062 25.234375 16.167969 23.554688 C 15.953125 23.359375 15.734375 23.15625 15.519531 22.9375 C 16.246094 22.109375 16.972656 21.148438 17.679688 20.078125 C 18.925781 19.964844 20.101562 19.777344 21.171875 19.519531 C 21.222656 19.738281 21.269531 19.957031 21.3125 20.167969 Z M 10.601562 25.296875 C 9.808594 25.585938 9.175781 25.597656 8.796875 25.367188 C 7.980469 24.878906 7.644531 22.992188 8.105469 20.460938 C 8.15625 20.171875 8.222656 19.875 8.292969 19.570312 C 9.347656 19.8125 10.519531 19.988281 11.765625 20.09375 C 12.480469 21.140625 13.226562 22.101562 13.980469 22.941406 C 13.816406 23.109375 13.652344 23.265625 13.488281 23.414062 C 12.488281 24.324219 11.488281 24.972656 10.601562 25.296875 Z M 6.882812 17.976562 C 5.628906 17.527344 4.589844 16.945312 3.878906 16.3125 C 3.238281 15.742188 2.914062 15.175781 2.914062 14.714844 C 2.914062 13.738281 4.316406 12.488281 6.648438 11.640625 C 6.933594 11.539062 7.230469 11.441406 7.535156 11.351562 C 7.859375 12.445312 8.28125 13.589844 8.792969 14.742188 C 8.277344 15.914062 7.847656 17.078125 7.519531 18.183594 C 7.300781 18.117188 7.089844 18.046875 6.882812 17.976562 Z M 8.132812 9.136719 C 7.648438 6.558594 7.96875 4.609375 8.777344 4.121094 C 9.640625 3.601562 11.546875 4.34375 13.558594 6.203125 C 13.6875 6.324219 13.816406 6.445312 13.945312 6.574219 C 13.195312 7.414062 12.457031 8.367188 11.75 9.40625 C 10.535156 9.523438 9.375 9.710938 8.308594 9.964844 C 8.242188 9.683594 8.183594 9.40625 8.132812 9.136719 Z M 19.25 11.996094 C 18.996094 11.539062 18.734375 11.089844 18.46875 10.652344 C 19.289062 10.761719 20.078125 10.90625 20.816406 11.082031 C 20.597656 11.824219 20.320312 12.597656 19.992188 13.394531 C 19.761719 12.933594 19.511719 12.464844 19.25 11.996094 Z M 14.714844 7.394531 C 15.226562 7.96875 15.734375 8.609375 16.234375 9.304688 C 15.730469 9.277344 15.21875 9.265625 14.703125 9.265625 C 14.195312 9.265625 13.6875 9.277344 13.1875 9.300781 C 13.6875 8.613281 14.199219 7.976562 14.714844 7.394531 Z M 10.152344 12.003906 C 9.898438 12.464844 9.65625 12.929688 9.425781 13.394531 C 9.105469 12.601562 8.828125 11.820312 8.605469 11.070312 C 9.339844 10.898438 10.125 10.757812 10.941406 10.652344 C 10.671875 11.089844 10.40625 11.542969 10.152344 12.003906 Z M 10.964844 18.859375 C 10.121094 18.761719 9.324219 18.628906 8.589844 18.464844 C 8.816406 17.699219 9.097656 16.902344 9.425781 16.09375 C 9.65625 16.558594 9.902344 17.019531 10.15625 17.480469 C 10.417969 17.953125 10.6875 18.410156 10.964844 18.859375 Z M 14.746094 22.117188 C 14.226562 21.53125 13.703125 20.878906 13.195312 20.183594 C 13.6875 20.203125 14.191406 20.214844 14.703125 20.214844 C 15.230469 20.214844 15.75 20.199219 16.261719 20.175781 C 15.757812 20.886719 15.25 21.539062 14.746094 22.117188 Z M 20.003906 16.050781 C 20.347656 16.871094 20.640625 17.660156 20.871094 18.414062 C 20.121094 18.589844 19.316406 18.734375 18.464844 18.839844 C 18.734375 18.398438 18.996094 17.941406 19.257812 17.472656 C 19.519531 17 19.769531 16.523438 20.003906 16.050781 Z M 18.300781 16.902344 C 17.898438 17.628906 17.484375 18.324219 17.066406 18.980469 C 16.300781 19.035156 15.511719 19.066406 14.703125 19.066406 C 13.902344 19.066406 13.121094 19.039062 12.371094 18.988281 C 11.933594 18.324219 11.511719 17.628906 11.109375 16.90625 C 10.710938 16.1875 10.34375 15.464844 10.011719 14.742188 C 10.34375 14.019531 10.710938 13.296875 11.105469 12.578125 C 11.503906 11.859375 11.921875 11.164062 12.355469 10.503906 C 13.125 10.445312 13.910156 10.414062 14.703125 10.414062 C 15.503906 10.414062 16.289062 10.445312 17.054688 10.503906 C 17.484375 11.160156 17.898438 11.851562 18.296875 12.570312 C 18.703125 13.300781 19.074219 14.019531 19.410156 14.726562 C 19.074219 15.445312 18.703125 16.175781 18.300781 16.902344 Z M 20.574219 4.089844 C 21.4375 4.605469 21.773438 6.699219 21.230469 9.441406 C 21.195312 9.617188 21.15625 9.792969 21.113281 9.976562 C 20.042969 9.71875 18.882812 9.527344 17.667969 9.40625 C 16.960938 8.355469 16.226562 7.402344 15.488281 6.574219 C 15.6875 6.375 15.882812 6.1875 16.082031 6.007812 C 17.984375 4.28125 19.765625 3.601562 20.574219 4.089844 Z M 14.703125 12.316406 C 15.976562 12.316406 17.007812 13.390625 17.007812 14.714844 C 17.007812 16.039062 15.976562 17.113281 14.703125 17.113281 C 13.433594 17.113281 12.402344 16.039062 12.402344 14.714844 C 12.402344 13.390625 13.433594 12.316406 14.703125 12.316406 Z M 14.703125 12.316406 "/>
</g>
</g>
</svg>
