<?xml version="1.0" encoding="UTF-8"?>
<svg xmlns="http://www.w3.org/2000/svg" xmlns:xlink="http://www.w3.org/1999/xlink" width="30pt" height="30.000001pt" viewBox="0 0 30 30.000001" version="1.2">
<defs>
<clipPath id="clip1">
  <path d="M 2.585938 5 L 27.113281 5 L 27.113281 24 L 2.585938 24 Z M 2.585938 5 "/>
</clipPath>
</defs>
<g id="surface1">
<g clip-path="url(#clip1)" clip-rule="nonzero">
<path style=" stroke:none;fill-rule:nonzero;fill:rgb(94.119263%,38.42926%,57.249451%);fill-opacity:1;" d="M 23.664062 15.871094 C 22.8125 15.875 22.074219 16.082031 21.457031 16.382812 C 21.230469 15.933594 21 15.539062 20.960938 15.242188 C 20.917969 14.898438 20.867188 14.695312 20.921875 14.285156 C 20.972656 13.875 21.210938 13.292969 21.207031 13.25 C 21.207031 13.207031 21.15625 13 20.664062 12.996094 C 20.171875 12.992188 19.753906 13.089844 19.703125 13.21875 C 19.652344 13.347656 19.558594 13.640625 19.5 13.945312 C 19.414062 14.386719 18.519531 15.972656 18.011719 16.800781 C 17.847656 16.480469 17.707031 16.195312 17.675781 15.96875 C 17.632812 15.625 17.578125 15.417969 17.632812 15.007812 C 17.6875 14.597656 17.925781 14.019531 17.921875 13.976562 C 17.917969 13.933594 17.867188 13.722656 17.378906 13.71875 C 16.886719 13.714844 16.464844 13.8125 16.417969 13.945312 C 16.367188 14.074219 16.3125 14.375 16.214844 14.667969 C 16.113281 14.960938 14.925781 17.605469 14.613281 18.289062 C 14.453125 18.640625 14.316406 18.921875 14.21875 19.113281 C 14.21875 19.113281 14.21875 19.109375 14.21875 19.109375 C 14.21875 19.109375 14.210938 19.125 14.203125 19.144531 C 14.117188 19.308594 14.070312 19.398438 14.070312 19.398438 C 14.070312 19.398438 14.070312 19.398438 14.070312 19.402344 C 14.003906 19.523438 13.933594 19.632812 13.898438 19.632812 C 13.875 19.632812 13.824219 19.3125 13.910156 18.875 C 14.085938 17.957031 14.511719 16.527344 14.507812 16.480469 C 14.503906 16.453125 14.585938 16.203125 14.230469 16.074219 C 13.882812 15.945312 13.757812 16.15625 13.726562 16.160156 C 13.695312 16.160156 13.675781 16.234375 13.675781 16.234375 C 13.675781 16.234375 14.058594 14.625 12.9375 14.625 C 12.234375 14.625 11.261719 15.390625 10.785156 16.085938 C 10.480469 16.25 9.835938 16.601562 9.148438 16.980469 C 8.886719 17.125 8.617188 17.273438 8.359375 17.410156 C 8.34375 17.394531 8.324219 17.375 8.308594 17.355469 C 6.945312 15.90625 4.429688 14.878906 4.535156 12.929688 C 4.574219 12.222656 4.820312 10.355469 9.371094 8.09375 C 13.097656 6.238281 16.082031 6.75 16.597656 7.878906 C 17.335938 9.496094 15.003906 12.496094 11.132812 12.929688 C 9.660156 13.09375 8.882812 12.523438 8.6875 12.3125 C 8.484375 12.089844 8.457031 12.078125 8.378906 12.121094 C 8.257812 12.1875 8.335938 12.386719 8.378906 12.503906 C 8.496094 12.804688 8.96875 13.335938 9.777344 13.601562 C 10.488281 13.835938 12.222656 13.960938 14.316406 13.152344 C 16.660156 12.25 18.492188 9.730469 17.953125 7.625 C 17.40625 5.484375 13.847656 4.78125 10.480469 5.972656 C 8.476562 6.683594 6.308594 7.800781 4.746094 9.253906 C 2.890625 10.984375 2.597656 12.492188 2.71875 13.121094 C 3.152344 15.359375 6.242188 16.816406 7.476562 17.894531 C 7.417969 17.929688 7.359375 17.960938 7.308594 17.988281 C 6.6875 18.296875 4.332031 19.527344 3.742188 20.824219 C 3.074219 22.300781 3.847656 23.359375 4.363281 23.5 C 5.949219 23.941406 7.582031 23.148438 8.457031 21.84375 C 9.332031 20.539062 9.226562 18.839844 8.824219 18.066406 C 8.820312 18.058594 8.8125 18.046875 8.808594 18.039062 C 8.96875 17.941406 9.132812 17.847656 9.292969 17.753906 C 9.609375 17.566406 9.921875 17.394531 10.1875 17.25 C 10.039062 17.660156 9.929688 18.152344 9.871094 18.867188 C 9.804688 19.703125 10.148438 20.785156 10.597656 21.210938 C 10.796875 21.398438 11.03125 21.402344 11.183594 21.402344 C 11.707031 21.402344 11.945312 20.96875 12.207031 20.453125 C 12.53125 19.824219 12.816406 19.089844 12.816406 19.089844 C 12.816406 19.089844 12.457031 21.070312 13.4375 21.070312 C 13.792969 21.070312 14.152344 20.609375 14.3125 20.375 C 14.3125 20.378906 14.3125 20.378906 14.3125 20.378906 C 14.3125 20.378906 14.320312 20.363281 14.339844 20.332031 C 14.375 20.277344 14.398438 20.238281 14.398438 20.238281 C 14.398438 20.238281 14.398438 20.234375 14.398438 20.230469 C 14.542969 19.980469 14.859375 19.414062 15.335938 18.480469 C 15.953125 17.277344 16.542969 15.765625 16.542969 15.765625 C 16.542969 15.765625 16.597656 16.132812 16.777344 16.746094 C 16.882812 17.105469 17.109375 17.503906 17.285156 17.882812 C 17.144531 18.082031 17.054688 18.195312 17.054688 18.195312 C 17.054688 18.195312 17.054688 18.195312 17.058594 18.199219 C 16.945312 18.351562 16.816406 18.515625 16.683594 18.675781 C 16.195312 19.25 15.617188 19.910156 15.539062 20.101562 C 15.449219 20.328125 15.46875 20.492188 15.644531 20.625 C 15.773438 20.722656 16.003906 20.738281 16.246094 20.71875 C 16.679688 20.691406 16.988281 20.582031 17.140625 20.515625 C 17.375 20.433594 17.652344 20.300781 17.910156 20.113281 C 18.386719 19.761719 18.671875 19.261719 18.644531 18.601562 C 18.628906 18.234375 18.515625 17.871094 18.367188 17.53125 C 18.410156 17.46875 18.453125 17.40625 18.496094 17.34375 C 19.246094 16.246094 19.832031 15.042969 19.832031 15.042969 C 19.832031 15.042969 19.886719 15.410156 20.066406 16.023438 C 20.15625 16.332031 20.335938 16.667969 20.5 17 C 19.792969 17.574219 19.355469 18.238281 19.203125 18.675781 C 18.921875 19.484375 19.140625 19.847656 19.554688 19.933594 C 19.742188 19.96875 20.003906 19.882812 20.203125 19.800781 C 20.453125 19.71875 20.75 19.582031 21.027344 19.378906 C 21.503906 19.027344 21.960938 18.539062 21.933594 17.875 C 21.921875 17.574219 21.839844 17.273438 21.730469 16.988281 C 22.328125 16.738281 23.101562 16.601562 24.089844 16.714844 C 26.210938 16.960938 26.625 18.28125 26.546875 18.835938 C 26.464844 19.386719 26.023438 19.691406 25.875 19.78125 C 25.726562 19.875 25.679688 19.90625 25.691406 19.976562 C 25.710938 20.074219 25.777344 20.070312 25.90625 20.050781 C 26.078125 20.019531 27.019531 19.597656 27.058594 18.578125 C 27.109375 17.28125 25.867188 15.859375 23.664062 15.871094 Z M 7.328125 21.367188 C 6.628906 22.132812 5.648438 22.421875 5.226562 22.175781 C 4.773438 21.914062 4.953125 20.789062 5.8125 19.976562 C 6.339844 19.484375 7.015625 19.027344 7.464844 18.75 C 7.566406 18.6875 7.71875 18.597656 7.902344 18.488281 C 7.929688 18.46875 7.949219 18.460938 7.949219 18.460938 C 7.984375 18.4375 8.019531 18.417969 8.058594 18.394531 C 8.371094 19.550781 8.066406 20.566406 7.328125 21.367188 Z M 12.445312 17.898438 C 12.199219 18.492188 11.6875 20.015625 11.375 19.933594 C 11.109375 19.863281 10.945312 18.707031 11.324219 17.566406 C 11.511719 16.996094 11.917969 16.308594 12.15625 16.042969 C 12.539062 15.617188 12.960938 15.476562 13.0625 15.648438 C 13.191406 15.871094 12.597656 17.523438 12.445312 17.898438 Z M 16.667969 19.910156 C 16.5625 19.964844 16.46875 20 16.425781 19.972656 C 16.394531 19.953125 16.46875 19.882812 16.46875 19.882812 C 16.46875 19.882812 16.996094 19.3125 17.203125 19.054688 C 17.324219 18.90625 17.464844 18.726562 17.617188 18.527344 C 17.621094 18.546875 17.621094 18.566406 17.621094 18.585938 C 17.621094 19.265625 16.960938 19.726562 16.667969 19.910156 Z M 19.921875 19.167969 C 19.84375 19.113281 19.859375 18.9375 20.113281 18.382812 C 20.210938 18.167969 20.441406 17.800781 20.835938 17.453125 C 20.882812 17.597656 20.910156 17.734375 20.910156 17.863281 C 20.902344 18.71875 20.292969 19.035156 19.921875 19.167969 Z M 19.921875 19.167969 "/>
</g>
</g>
</svg>
