<?xml version="1.0" encoding="UTF-8"?>
<svg xmlns="http://www.w3.org/2000/svg" xmlns:xlink="http://www.w3.org/1999/xlink" width="30pt" height="30.000001pt" viewBox="0 0 30 30.000001" version="1.2">
<defs>
<clipPath id="clip1">
  <path d="M 2.804688 2.324219 L 27.484375 2.324219 L 27.484375 27 L 2.804688 27 Z M 2.804688 2.324219 "/>
</clipPath>
</defs>
<g id="surface1">
<g clip-path="url(#clip1)" clip-rule="nonzero">
<path style=" stroke:none;fill-rule:nonzero;fill:rgb(40.388489%,22.749329%,71.759033%);fill-opacity:1;" d="M 27.78125 23.828125 C 27.78125 25.746094 26.230469 27.296875 24.3125 27.296875 L 6.273438 27.296875 C 4.359375 27.296875 2.804688 25.746094 2.804688 23.828125 L 2.804688 5.792969 C 2.804688 3.875 4.359375 2.324219 6.273438 2.324219 L 24.3125 2.324219 C 26.230469 2.324219 27.78125 3.875 27.78125 5.792969 Z M 27.78125 23.828125 "/>
</g>
<path style=" stroke:none;fill-rule:nonzero;fill:rgb(100%,100%,100%);fill-opacity:1;" d="M 21.558594 15.921875 C 21.109375 15.296875 20.457031 14.867188 19.617188 14.636719 C 19.617188 14.636719 20.324219 14.378906 20.960938 13.421875 C 21.34375 12.8125 21.539062 12.078125 21.539062 11.214844 C 21.539062 9.726562 20.996094 8.582031 19.914062 7.796875 C 18.832031 7.011719 17.613281 6.484375 15.539062 6.484375 L 9.050781 6.484375 L 9.050781 23.136719 L 16.285156 23.136719 C 18.25 23.121094 19.726562 22.699219 20.734375 21.886719 C 21.734375 21.0625 22.230469 19.839844 22.230469 18.210938 C 22.230469 17.308594 22.011719 16.546875 21.558594 15.921875 Z M 13.214844 9.261719 C 13.214844 9.261719 16.105469 9.261719 16.160156 9.261719 C 17.214844 9.261719 18.070312 10.113281 18.070312 11.167969 C 18.070312 12.222656 17.214844 13.074219 16.160156 13.074219 C 16.105469 13.074219 13.214844 13.074219 13.214844 13.074219 Z M 16.683594 20.359375 L 13.214844 20.359375 L 13.214844 16.199219 L 16.683594 16.199219 C 17.832031 16.199219 18.761719 17.128906 18.761719 18.28125 C 18.761719 19.429688 17.832031 20.359375 16.683594 20.359375 Z M 16.683594 20.359375 "/>
</g>
</svg>
