<?xml version="1.0" encoding="UTF-8"?>
<svg xmlns="http://www.w3.org/2000/svg" xmlns:xlink="http://www.w3.org/1999/xlink" width="30pt" height="30.000001pt" viewBox="0 0 30 30.000001" version="1.2">
<defs>
<clipPath id="clip1">
  <path d="M 2.660156 2.175781 L 27.339844 2.175781 L 27.339844 26.855469 L 2.660156 26.855469 Z M 2.660156 2.175781 "/>
</clipPath>
</defs>
<g id="surface1">
<g clip-path="url(#clip1)" clip-rule="nonzero">
<path style=" stroke:none;fill-rule:nonzero;fill:rgb(0%,76.858521%,79.998779%);fill-opacity:1;" d="M 27.339844 14.515625 C 27.339844 15.328125 27.257812 16.128906 27.101562 16.921875 C 26.945312 17.71875 26.710938 18.488281 26.398438 19.238281 C 26.089844 19.988281 25.710938 20.699219 25.257812 21.371094 C 24.808594 22.042969 24.296875 22.667969 23.726562 23.242188 C 23.152344 23.8125 22.527344 24.324219 21.855469 24.777344 C 21.179688 25.226562 20.46875 25.605469 19.722656 25.914062 C 18.972656 26.226562 18.203125 26.460938 17.40625 26.617188 C 16.613281 26.777344 15.808594 26.855469 15 26.855469 C 14.191406 26.855469 13.386719 26.777344 12.59375 26.617188 C 11.796875 26.460938 11.027344 26.226562 10.277344 25.914062 C 9.53125 25.605469 8.820312 25.226562 8.144531 24.777344 C 7.472656 24.324219 6.847656 23.8125 6.273438 23.242188 C 5.703125 22.667969 5.191406 22.042969 4.742188 21.371094 C 4.289062 20.699219 3.910156 19.988281 3.601562 19.238281 C 3.289062 18.488281 3.054688 17.71875 2.898438 16.921875 C 2.742188 16.128906 2.660156 15.328125 2.660156 14.515625 C 2.660156 13.707031 2.742188 12.902344 2.898438 12.109375 C 3.054688 11.3125 3.289062 10.542969 3.601562 9.792969 C 3.910156 9.046875 4.289062 8.335938 4.742188 7.660156 C 5.191406 6.988281 5.703125 6.363281 6.273438 5.792969 C 6.847656 5.21875 7.472656 4.707031 8.144531 4.257812 C 8.820312 3.808594 9.53125 3.425781 10.277344 3.117188 C 11.027344 2.804688 11.796875 2.574219 12.59375 2.414062 C 13.386719 2.257812 14.191406 2.175781 15 2.175781 C 15.808594 2.175781 16.613281 2.257812 17.40625 2.414062 C 18.203125 2.574219 18.972656 2.804688 19.722656 3.117188 C 20.46875 3.425781 21.179688 3.808594 21.855469 4.257812 C 22.527344 4.707031 23.152344 5.21875 23.726562 5.792969 C 24.296875 6.363281 24.808594 6.988281 25.257812 7.660156 C 25.710938 8.335938 26.089844 9.046875 26.398438 9.792969 C 26.710938 10.542969 26.945312 11.3125 27.101562 12.109375 C 27.257812 12.902344 27.339844 13.707031 27.339844 14.515625 Z M 27.339844 14.515625 "/>
</g>
<path style=" stroke:none;fill-rule:nonzero;fill:rgb(100%,100%,100%);fill-opacity:1;" d="M 11.105469 15.902344 C 10.800781 16.304688 10.410156 16.738281 9.890625 17.070312 C 9.386719 17.386719 8.808594 17.648438 8.128906 17.648438 C 7.511719 17.648438 6.976562 17.316406 6.6875 17.042969 C 6.253906 16.636719 6.023438 16.03125 5.953125 15.484375 C 5.734375 13.75 6.804688 11.472656 8.449219 10.476562 C 8.824219 10.246094 9.242188 10.128906 9.632812 10.128906 C 10.425781 10.128906 11.015625 10.691406 11.089844 11.371094 C 11.160156 11.976562 10.914062 12.496094 10.253906 12.84375 C 9.90625 13.015625 9.734375 13 9.6875 12.929688 C 9.660156 12.871094 9.675781 12.785156 9.746094 12.726562 C 10.382812 12.191406 10.394531 11.757812 10.324219 11.152344 C 10.28125 10.765625 10.019531 10.503906 9.734375 10.503906 C 8.492188 10.503906 6.703125 13.289062 6.949219 15.308594 C 7.046875 16.105469 7.523438 17.011719 8.535156 17.011719 C 8.867188 17.011719 9.214844 16.925781 9.53125 16.765625 C 10.222656 16.421875 10.539062 16.160156 10.960938 15.585938 C 11.015625 15.511719 11.058594 15.425781 11.132812 15.339844 C 11.175781 15.265625 11.234375 15.253906 11.292969 15.253906 C 11.347656 15.253906 11.40625 15.308594 11.421875 15.382812 C 11.433594 15.441406 11.40625 15.539062 11.335938 15.628906 C 11.234375 15.726562 11.175781 15.816406 11.105469 15.902344 Z M 11.105469 15.902344 "/>
<path style=" stroke:none;fill-rule:nonzero;fill:rgb(100%,100%,100%);fill-opacity:1;" d="M 12.992188 16.910156 C 12.675781 16.910156 12.503906 16.738281 12.445312 16.492188 C 12.242188 16.765625 11.96875 16.910156 11.679688 16.910156 C 11.203125 16.910156 10.742188 16.507812 10.683594 15.960938 C 10.570312 15.007812 11.378906 13.792969 12.605469 13.792969 C 13.125 13.792969 13.558594 13.996094 13.601562 14.414062 C 13.65625 14.933594 13.226562 15.035156 13.050781 15.035156 C 12.90625 15.035156 12.675781 14.992188 12.664062 14.863281 C 12.648438 14.71875 12.980469 14.804688 12.9375 14.472656 C 12.90625 14.269531 12.691406 14.199219 12.488281 14.199219 C 11.738281 14.199219 11.335938 15.238281 11.40625 15.886719 C 11.433594 16.175781 11.59375 16.464844 11.867188 16.464844 C 12.085938 16.464844 12.402344 16.148438 12.519531 15.699219 C 12.589844 15.382812 12.894531 15.179688 13.109375 15.179688 C 13.226562 15.179688 13.296875 15.238281 13.3125 15.351562 C 13.3125 15.394531 13.3125 15.441406 13.296875 15.511719 C 13.269531 15.640625 13.167969 16.105469 13.167969 16.191406 C 13.167969 16.277344 13.226562 16.378906 13.355469 16.378906 C 13.511719 16.378906 14.25 15.945312 14.667969 15.367188 C 14.695312 15.308594 14.769531 15.28125 14.839844 15.28125 C 14.898438 15.28125 14.957031 15.308594 14.972656 15.382812 C 14.984375 15.453125 14.957031 15.554688 14.855469 15.671875 C 14.378906 16.335938 13.355469 16.910156 12.992188 16.910156 Z M 12.992188 16.910156 "/>
<path style=" stroke:none;fill-rule:nonzero;fill:rgb(100%,100%,100%);fill-opacity:1;" d="M 23.3125 16.566406 C 23.355469 16.867188 23.484375 17.070312 23.617188 17.171875 C 23.660156 17.214844 23.6875 17.257812 23.6875 17.300781 C 23.703125 17.386719 23.628906 17.460938 23.527344 17.460938 C 23.5 17.460938 23.457031 17.460938 23.429688 17.445312 C 22.894531 17.230469 22.675781 16.867188 22.605469 16.523438 C 22.402344 16.78125 22.128906 16.925781 21.839844 16.925781 C 21.363281 16.925781 20.902344 16.507812 20.832031 15.972656 C 20.714844 15.035156 21.566406 13.808594 22.765625 13.808594 C 23.269531 13.808594 23.714844 14.011719 23.757812 14.414062 C 23.832031 14.949219 23.371094 15.050781 23.210938 15.050781 C 23.050781 15.050781 22.820312 15.007812 22.808594 14.875 C 22.792969 14.746094 23.125 14.820312 23.097656 14.488281 C 23.066406 14.285156 22.851562 14.199219 22.648438 14.199219 C 21.957031 14.199219 21.480469 15.121094 21.566406 15.871094 C 21.609375 16.175781 21.738281 16.464844 22.011719 16.464844 C 22.230469 16.464844 22.5625 16.148438 22.675781 15.699219 C 22.75 15.394531 23.050781 15.179688 23.269531 15.179688 C 23.371094 15.179688 23.457031 15.238281 23.472656 15.351562 C 23.484375 15.410156 23.457031 15.554688 23.339844 16.046875 C 23.296875 16.246094 23.296875 16.421875 23.3125 16.566406 Z M 23.3125 16.566406 "/>
<path style=" stroke:none;fill-rule:nonzero;fill:rgb(100%,100%,100%);fill-opacity:1;" d="M 16.847656 16.378906 C 17.019531 16.378906 17.554688 16.175781 17.988281 15.585938 C 18.03125 15.527344 18.089844 15.496094 18.160156 15.496094 C 18.234375 15.496094 18.289062 15.527344 18.304688 15.613281 C 18.320312 15.671875 18.277344 15.773438 18.1875 15.886719 C 17.699219 16.566406 16.875 16.910156 16.515625 16.910156 C 16.140625 16.910156 15.9375 16.679688 15.894531 16.335938 C 15.878906 16.21875 15.878906 16.089844 15.910156 15.945312 C 16.039062 15.179688 16.3125 14.703125 16.296875 14.558594 C 16.296875 14.515625 16.269531 14.5 16.242188 14.5 C 15.996094 14.5 15.160156 15.367188 15.027344 15.929688 L 14.929688 16.390625 C 14.871094 16.710938 14.550781 16.925781 14.320312 16.925781 C 14.222656 16.925781 14.132812 16.867188 14.121094 16.753906 C 14.121094 16.710938 14.121094 16.667969 14.132812 16.59375 C 14.132812 16.59375 14.550781 14.457031 14.566406 14.355469 C 14.609375 14.113281 14.695312 13.851562 15.214844 13.851562 C 15.316406 13.851562 15.402344 13.910156 15.417969 14.027344 C 15.417969 14.070312 15.417969 14.113281 15.402344 14.183594 L 15.257812 14.820312 C 15.707031 14.226562 16.398438 13.792969 16.816406 13.792969 C 16.992188 13.792969 17.136719 13.882812 17.148438 14.070312 C 17.164062 14.167969 17.136719 14.34375 17.0625 14.546875 C 16.917969 14.949219 16.746094 15.554688 16.644531 16.089844 C 16.601562 16.203125 16.644531 16.378906 16.847656 16.378906 Z M 16.847656 16.378906 "/>
<path style=" stroke:none;fill-rule:nonzero;fill:rgb(100%,100%,100%);fill-opacity:1;" d="M 20.324219 15.453125 C 20.265625 15.453125 20.210938 15.453125 20.152344 15.441406 C 19.691406 16.117188 19.199219 16.578125 18.824219 16.796875 C 18.664062 16.882812 18.519531 16.925781 18.421875 16.925781 C 18.332031 16.925781 18.246094 16.910156 18.203125 16.839844 C 18.03125 16.566406 17.957031 15.988281 17.957031 15.394531 C 17.957031 14.964844 17.988281 14.601562 18.074219 14.34375 C 18.160156 14.070312 18.507812 13.808594 18.722656 13.808594 C 18.839844 13.808594 18.925781 13.867188 18.925781 13.996094 C 18.925781 14.039062 18.910156 14.082031 18.894531 14.140625 C 18.738281 14.601562 18.652344 15.019531 18.652344 15.453125 C 18.652344 15.699219 18.707031 16.074219 18.753906 16.277344 C 18.765625 16.320312 18.765625 16.363281 18.808594 16.363281 C 18.882812 16.363281 19.371094 15.886719 19.71875 15.308594 C 19.402344 15.109375 19.226562 14.746094 19.226562 14.300781 C 19.226562 13.550781 19.675781 13.175781 20.109375 13.175781 C 20.453125 13.175781 20.757812 13.417969 20.757812 13.925781 C 20.757812 14.242188 20.628906 14.589844 20.453125 14.933594 C 20.453125 14.933594 20.527344 14.949219 20.554688 14.949219 C 20.832031 14.949219 21.03125 14.820312 21.148438 14.6875 C 21.234375 14.601562 21.304688 14.53125 21.378906 14.53125 C 21.4375 14.53125 21.449219 14.574219 21.449219 14.617188 C 21.449219 14.644531 21.4375 14.703125 21.40625 14.746094 C 21.175781 15.164062 20.699219 15.453125 20.324219 15.453125 Z M 19.691406 13.894531 C 19.691406 14.183594 19.835938 14.488281 20.023438 14.6875 C 20.09375 14.488281 20.136719 14.300781 20.136719 14.097656 C 20.136719 13.722656 19.992188 13.5625 19.878906 13.5625 C 19.734375 13.550781 19.691406 13.738281 19.691406 13.894531 Z M 19.691406 13.894531 "/>
</g>
</svg>
