<?xml version="1.0" encoding="UTF-8"?>
<svg xmlns="http://www.w3.org/2000/svg" xmlns:xlink="http://www.w3.org/1999/xlink" width="30pt" height="30.000001pt" viewBox="0 0 30 30.000001" version="1.2">
<defs>
<clipPath id="clip1">
  <path d="M 0.484375 0 L 29.515625 0 L 29.515625 29.03125 L 0.484375 29.03125 Z M 0.484375 0 "/>
</clipPath>
<clipPath id="clip2">
  <path d="M 22 12 L 26.332031 12 L 26.332031 17 L 22 17 Z M 22 12 "/>
</clipPath>
<clipPath id="clip3">
  <path d="M 13 2.175781 L 26.332031 2.175781 L 26.332031 11 L 13 11 Z M 13 2.175781 "/>
</clipPath>
<clipPath id="clip4">
  <path d="M 4 15 L 26.332031 15 L 26.332031 26.851562 L 4 26.851562 Z M 4 15 "/>
</clipPath>
</defs>
<g id="surface1">
<g clip-path="url(#clip1)" clip-rule="nonzero">
<path style=" stroke:none;fill-rule:nonzero;fill:rgb(100%,100%,100%);fill-opacity:1;" d="M 0.484375 0 L 29.515625 0 L 29.515625 36.289062 L 0.484375 36.289062 Z M 0.484375 0 "/>
<path style=" stroke:none;fill-rule:nonzero;fill:rgb(100%,100%,100%);fill-opacity:1;" d="M 0.484375 0 L 29.515625 0 L 29.515625 29.03125 L 0.484375 29.03125 Z M 0.484375 0 "/>
<path style=" stroke:none;fill-rule:nonzero;fill:rgb(100%,100%,100%);fill-opacity:1;" d="M 0.484375 0 L 29.515625 0 L 29.515625 29.03125 L 0.484375 29.03125 Z M 0.484375 0 "/>
</g>
<g clip-path="url(#clip2)" clip-rule="nonzero">
<path style=" stroke:none;fill-rule:nonzero;fill:rgb(59.999084%,25.489807%,35.688782%);fill-opacity:1;" d="M 26.238281 14.300781 L 26.238281 14.304688 C 26.238281 15.425781 25.304688 16.339844 24.152344 16.339844 C 23.003906 16.335938 22.070312 15.425781 22.070312 14.300781 C 22.070312 13.652344 22.378906 13.078125 22.859375 12.707031 L 22.871094 12.695312 C 22.9375 12.644531 23.011719 12.597656 23.085938 12.546875 C 23.085938 12.546875 23.09375 12.546875 23.09375 12.539062 C 23.128906 12.523438 23.160156 12.5 23.195312 12.480469 C 23.203125 12.480469 23.210938 12.476562 23.21875 12.476562 C 23.253906 12.457031 23.292969 12.441406 23.335938 12.425781 C 23.375 12.410156 23.417969 12.394531 23.453125 12.378906 C 23.460938 12.378906 23.46875 12.371094 23.476562 12.371094 C 23.507812 12.363281 23.542969 12.34375 23.578125 12.335938 C 23.585938 12.335938 23.601562 12.328125 23.609375 12.328125 C 23.648438 12.320312 23.683594 12.3125 23.726562 12.304688 L 23.734375 12.304688 L 23.859375 12.28125 C 23.867188 12.28125 23.882812 12.28125 23.890625 12.273438 C 23.921875 12.273438 23.957031 12.265625 23.988281 12.265625 L 24.03125 12.265625 C 24.070312 12.265625 24.113281 12.257812 24.164062 12.257812 L 24.269531 12.257812 C 24.304688 12.257812 24.328125 12.257812 24.363281 12.265625 L 24.378906 12.265625 C 24.445312 12.273438 24.511719 12.28125 24.578125 12.296875 C 25.53125 12.5 26.238281 13.320312 26.238281 14.300781 Z M 26.238281 14.300781 "/>
</g>
<g clip-path="url(#clip3)" clip-rule="nonzero">
<path style=" stroke:none;fill-rule:nonzero;fill:rgb(59.999084%,25.489807%,35.688782%);fill-opacity:1;" d="M 13.308594 2.164062 L 26.332031 2.164062 L 23.34375 10.777344 C 23.21875 10.800781 23.09375 10.839844 22.96875 10.882812 L 19.824219 4.613281 L 16.667969 10.839844 C 16.546875 10.800781 16.410156 10.777344 16.28125 10.753906 Z M 13.308594 2.164062 "/>
</g>
<path style=" stroke:none;fill-rule:nonzero;fill:rgb(59.999084%,25.489807%,35.688782%);fill-opacity:1;" d="M 13.507812 14.296875 C 13.507812 14.292969 13.507812 14.292969 13.507812 14.289062 C 13.507812 13.34375 14.167969 12.550781 15.066406 12.324219 L 15.078125 12.324219 L 15.078125 12.320312 C 15.117188 12.3125 15.152344 12.304688 15.195312 12.296875 L 15.21875 12.296875 C 15.253906 12.289062 15.285156 12.289062 15.320312 12.28125 L 15.351562 12.28125 C 15.386719 12.28125 15.410156 12.273438 15.441406 12.273438 L 15.765625 12.273438 C 15.796875 12.273438 15.824219 12.28125 15.847656 12.28125 C 15.867188 12.28125 15.875 12.28125 15.890625 12.289062 C 15.921875 12.296875 15.949219 12.296875 15.980469 12.304688 C 15.988281 12.304688 16 12.304688 16.015625 12.3125 L 16.128906 12.335938 L 16.140625 12.335938 C 16.171875 12.34375 16.207031 12.355469 16.238281 12.371094 C 16.246094 12.371094 16.253906 12.378906 16.269531 12.378906 C 16.296875 12.386719 16.328125 12.394531 16.355469 12.410156 C 16.363281 12.410156 16.371094 12.417969 16.378906 12.417969 C 16.410156 12.433594 16.445312 12.441406 16.480469 12.457031 L 16.488281 12.457031 C 16.527344 12.472656 16.5625 12.492188 16.597656 12.515625 L 16.59375 12.515625 L 16.601562 12.515625 C 16.636719 12.53125 16.667969 12.554688 16.703125 12.570312 C 16.710938 12.570312 16.710938 12.578125 16.71875 12.578125 C 16.753906 12.597656 16.777344 12.621094 16.8125 12.636719 L 16.820312 12.644531 C 16.917969 12.71875 17.011719 12.796875 17.101562 12.878906 L 17.109375 12.886719 C 17.460938 13.25 17.679688 13.742188 17.679688 14.289062 C 17.679688 14.289062 17.679688 14.292969 17.679688 14.296875 C 17.640625 15.390625 16.722656 16.265625 15.59375 16.265625 C 14.464844 16.265625 13.546875 15.390625 13.507812 14.300781 Z M 13.507812 14.296875 "/>
<path style=" stroke:none;fill-rule:nonzero;fill:rgb(59.999084%,25.489807%,35.688782%);fill-opacity:1;" d="M 9.019531 14.300781 C 9.019531 14.574219 8.964844 14.832031 8.859375 15.082031 C 8.753906 15.332031 8.601562 15.550781 8.40625 15.742188 C 8.210938 15.933594 7.988281 16.082031 7.730469 16.183594 C 7.476562 16.289062 7.210938 16.339844 6.933594 16.339844 C 6.65625 16.339844 6.390625 16.289062 6.132812 16.183594 C 5.878906 16.082031 5.652344 15.933594 5.457031 15.742188 C 5.261719 15.550781 5.109375 15.332031 5.003906 15.082031 C 4.898438 14.832031 4.847656 14.574219 4.847656 14.300781 C 4.847656 14.03125 4.898438 13.773438 5.003906 13.523438 C 5.109375 13.273438 5.261719 13.050781 5.457031 12.859375 C 5.652344 12.671875 5.878906 12.523438 6.132812 12.417969 C 6.390625 12.316406 6.65625 12.265625 6.933594 12.265625 C 7.210938 12.265625 7.476562 12.316406 7.730469 12.417969 C 7.988281 12.523438 8.210938 12.671875 8.40625 12.859375 C 8.601562 13.050781 8.753906 13.273438 8.859375 13.523438 C 8.964844 13.773438 9.019531 14.03125 9.019531 14.300781 Z M 9.019531 14.300781 "/>
<g clip-path="url(#clip4)" clip-rule="nonzero">
<path style=" stroke:none;fill-rule:nonzero;fill:rgb(59.999084%,25.489807%,35.688782%);fill-opacity:1;" d="M 4.40625 21.265625 C 4.605469 20.085938 5.160156 18.976562 5.691406 17.917969 C 5.722656 17.855469 5.75 17.796875 5.78125 17.730469 C 5.964844 17.796875 6.15625 17.84375 6.351562 17.878906 C 6.039062 19.59375 6.933594 21.363281 8.671875 22.238281 L 8.988281 22.398438 L 9.324219 22.277344 C 10.773438 21.777344 12.113281 20.960938 13.300781 19.867188 C 13.941406 19.28125 14.511719 18.625 14.996094 17.910156 L 15.019531 17.871094 C 15.210938 17.902344 15.402344 17.910156 15.59375 17.910156 C 17.308594 17.90625 18.746094 16.769531 19.171875 15.226562 L 19.175781 15.199219 L 20.566406 15.199219 C 20.992188 16.769531 22.4375 17.910156 24.152344 17.910156 C 24.839844 17.910156 25.472656 17.722656 26.023438 17.410156 C 26.238281 18.015625 26.304688 18.648438 26.1875 19.277344 C 25.988281 20.347656 25.324219 21.238281 24.410156 21.75 L 24.394531 21.761719 C 23.488281 22.269531 22.378906 22.433594 21.210938 22.59375 C 20.433594 22.691406 19.769531 22.808594 19.121094 22.960938 L 19.257812 22.933594 C 17.539062 23.34375 15.882812 24.15625 14.277344 24.929688 C 12.222656 25.925781 10.285156 26.863281 8.488281 26.863281 C 8.480469 26.863281 8.472656 26.863281 8.460938 26.863281 C 7.511719 26.863281 6.632812 26.5625 5.917969 26.058594 C 4.101562 24.828125 4.191406 22.527344 4.40625 21.265625 Z M 4.40625 21.265625 "/>
</g>
</g>
</svg>
