<?xml version="1.0" encoding="UTF-8"?>
<svg xmlns="http://www.w3.org/2000/svg" xmlns:xlink="http://www.w3.org/1999/xlink" width="30pt" height="30.000001pt" viewBox="0 0 30 30.000001" version="1.2">
<defs>
<clipPath id="clip1">
  <path d="M 2.589844 2.105469 L 27 2.105469 L 27 26.648438 L 2.589844 26.648438 Z M 2.589844 2.105469 "/>
</clipPath>
</defs>
<g id="surface1">
<g clip-path="url(#clip1)" clip-rule="nonzero">
<path style=" stroke:none;fill-rule:nonzero;fill:rgb(100%,100%,100%);fill-opacity:1;" d="M 26.230469 17.046875 C 26.125 16.585938 25.707031 16.046875 24.859375 16.046875 C 24.6875 16.046875 24.5 16.066406 24.285156 16.113281 C 23.890625 16.195312 23.550781 16.234375 23.257812 16.246094 C 25.5625 12.320312 27.058594 6.867188 25.578125 4.972656 C 23.625 2.476562 20.996094 2.105469 19.601562 2.105469 L 19.472656 2.105469 C 18.953125 2.113281 18.414062 2.175781 17.875 2.292969 L 15.875 2.726562 C 15.601562 2.691406 15.324219 2.667969 15.039062 2.664062 L 15.011719 2.664062 L 14.925781 2.660156 C 14.039062 2.660156 13.226562 2.851562 12.503906 3.203125 L 11.808594 2.929688 C 10.847656 2.550781 9.40625 2.101562 7.976562 2.101562 C 7.898438 2.101562 7.816406 2.101562 7.738281 2.105469 C 6.328125 2.15625 5.121094 2.691406 4.242188 3.648438 C 3.144531 4.847656 2.644531 6.597656 2.757812 8.855469 C 2.761719 8.96875 4.128906 20.511719 8 20.511719 L 8.046875 20.511719 C 8.550781 20.5 9.03125 20.296875 9.476562 19.910156 C 9.820312 20.167969 10.261719 20.320312 10.675781 20.378906 C 10.945312 20.441406 11.4375 20.535156 12.023438 20.535156 C 12.738281 20.535156 13.386719 20.386719 13.941406 20.121094 C 13.941406 20.613281 13.9375 21.234375 13.933594 22.027344 L 13.933594 22.113281 C 13.988281 22.902344 14.125 23.617188 14.332031 24.175781 C 14.917969 25.769531 15.929688 26.648438 17.183594 26.648438 C 17.234375 26.648438 17.289062 26.648438 17.339844 26.644531 C 18.371094 26.582031 19.414062 26.003906 20.132812 25.097656 C 20.910156 24.121094 21.089844 23.085938 21.15625 22.296875 L 21.164062 22.246094 L 21.164062 19.921875 L 21.21875 19.929688 L 21.464844 19.949219 L 21.488281 19.953125 L 21.511719 19.953125 C 21.578125 19.957031 21.652344 19.957031 21.722656 19.957031 C 22.5625 19.957031 23.597656 19.738281 24.296875 19.414062 C 24.964844 19.105469 26.496094 18.25 26.230469 17.046875 Z M 26.230469 17.046875 "/>
</g>
<path style=" stroke:none;fill-rule:nonzero;fill:rgb(0.779724%,46.669006%,74.119568%);fill-opacity:1;" d="M 20.046875 19.394531 C 20.046875 19.28125 20.054688 19.1875 20.058594 19.082031 C 20.050781 18.941406 20.046875 18.839844 20.046875 18.839844 C 20.046875 18.839844 20.054688 18.832031 20.066406 18.824219 C 20.148438 17.335938 20.558594 16.761719 21 16.433594 C 20.9375 16.347656 20.867188 16.253906 20.800781 16.167969 C 20.613281 15.925781 20.382812 15.621094 20.136719 15.234375 L 20.089844 15.144531 C 20.050781 15.054688 19.960938 14.898438 19.847656 14.6875 C 19.1875 13.496094 17.8125 11.011719 18.753906 9.445312 C 19.164062 8.757812 19.9375 8.359375 21.050781 8.261719 C 20.597656 6.96875 18.890625 3.84375 15.019531 3.777344 C 15.019531 3.777344 15.015625 3.777344 15.015625 3.777344 C 11.644531 3.722656 10.539062 6.785156 10.179688 8.613281 C 10.675781 8.40625 11.242188 8.277344 11.761719 8.277344 C 11.769531 8.277344 11.777344 8.277344 11.785156 8.277344 C 13.0625 8.285156 13.941406 8.96875 14.195312 10.148438 C 14.382812 11.011719 14.472656 11.769531 14.46875 12.464844 C 14.464844 13.980469 14.160156 14.777344 13.886719 15.484375 L 13.804688 15.710938 C 13.734375 15.894531 13.660156 16.070312 13.589844 16.234375 C 13.519531 16.398438 13.460938 16.546875 13.414062 16.679688 C 13.683594 16.742188 13.894531 16.828125 14.042969 16.890625 L 14.125 16.929688 C 14.152344 16.941406 14.179688 16.953125 14.203125 16.96875 C 14.675781 17.253906 14.96875 17.699219 15.03125 18.210938 C 15.066406 18.492188 15.0625 20.382812 15.050781 22.035156 C 15.097656 22.753906 15.21875 23.355469 15.378906 23.792969 C 15.609375 24.414062 16.179688 25.597656 17.273438 25.53125 C 18.039062 25.484375 18.773438 25.019531 19.257812 24.40625 C 19.78125 23.746094 19.976562 23.015625 20.046875 22.195312 Z M 20.046875 19.394531 "/>
<path style=" stroke:none;fill-rule:nonzero;fill:rgb(0.779724%,46.669006%,74.119568%);fill-opacity:1;" d="M 10.070312 16.5625 C 9.171875 15.621094 8.734375 14.359375 8.898438 13.183594 C 9.054688 12.046875 8.964844 10.9375 8.917969 10.339844 C 8.902344 10.140625 8.890625 9.992188 8.890625 9.910156 C 8.890625 9.90625 8.894531 9.902344 8.894531 9.898438 C 8.894531 9.894531 8.890625 9.894531 8.890625 9.890625 C 8.960938 8.207031 9.609375 5.546875 11.398438 3.96875 C 10.527344 3.625 9.109375 3.171875 7.777344 3.21875 C 5.6875 3.296875 3.667969 4.738281 3.871094 8.796875 C 3.949219 10.320312 5.667969 19.453125 8.019531 19.394531 C 8.359375 19.386719 8.707031 19.171875 9.066406 18.738281 C 9.632812 18.058594 10.183594 17.4375 10.574219 17.007812 C 10.398438 16.875 10.230469 16.726562 10.070312 16.5625 Z M 22.289062 8.648438 C 22.300781 8.734375 22.292969 8.808594 22.277344 8.875 C 22.296875 9.390625 22.242188 9.886719 22.183594 10.367188 C 22.144531 10.722656 22.101562 11.089844 22.089844 11.457031 C 22.078125 11.816406 22.128906 12.171875 22.183594 12.546875 C 22.308594 13.429688 22.4375 14.421875 21.753906 15.582031 C 21.878906 15.746094 21.992188 15.898438 22.078125 16.046875 C 24.648438 11.878906 25.6875 6.921875 24.699219 5.660156 C 23.203125 3.746094 21.128906 3.195312 19.488281 3.21875 C 18.976562 3.230469 18.507812 3.296875 18.109375 3.382812 C 20.941406 4.757812 22.203125 7.695312 22.289062 8.648438 Z M 24.507812 17.203125 C 23.023438 17.511719 22.308594 17.347656 21.960938 17.132812 C 21.90625 17.175781 21.847656 17.207031 21.796875 17.238281 C 21.589844 17.367188 21.261719 17.566406 21.179688 18.792969 C 21.226562 18.800781 21.269531 18.804688 21.316406 18.816406 L 21.5625 18.839844 C 22.296875 18.871094 23.261719 18.664062 23.828125 18.402344 C 25.046875 17.835938 25.710938 16.957031 24.507812 17.203125 Z M 13.925781 18.347656 C 13.902344 18.179688 13.8125 18.046875 13.648438 17.9375 L 13.589844 17.914062 C 13.386719 17.824219 13.160156 17.722656 12.796875 17.722656 L 12.792969 17.722656 C 12.722656 17.726562 12.652344 17.734375 12.582031 17.734375 C 12.554688 17.734375 12.523438 17.730469 12.496094 17.726562 C 12.230469 17.933594 11.855469 18.089844 10.925781 18.28125 C 9.261719 18.703125 10.242188 19.203125 10.882812 19.28125 C 11.496094 19.433594 12.964844 19.625 13.9375 18.828125 C 13.933594 18.578125 13.929688 18.40625 13.925781 18.347656 Z M 13.925781 18.347656 "/>
<path style=" stroke:none;fill-rule:nonzero;fill:rgb(0.779724%,46.669006%,74.119568%);fill-opacity:1;" d="M 13.175781 10.75 C 13.011719 10.917969 12.753906 11.066406 12.472656 11.019531 C 12.011719 10.945312 11.65625 10.390625 11.679688 10.179688 C 11.707031 9.972656 12.101562 9.863281 12.5625 9.9375 C 12.722656 9.964844 12.867188 10.007812 12.988281 10.0625 C 12.8125 9.679688 12.488281 9.460938 11.996094 9.40625 C 11.125 9.308594 10.195312 9.765625 10.011719 10.015625 C 10.015625 10.078125 10.023438 10.15625 10.027344 10.25 C 10.082031 10.890625 10.175781 12.082031 10 13.335938 C 9.886719 14.167969 10.21875 15.105469 10.875 15.789062 C 11.296875 16.230469 11.789062 16.507812 12.277344 16.589844 C 12.339844 16.324219 12.449219 16.066406 12.5625 15.796875 C 12.625 15.648438 12.691406 15.492188 12.753906 15.320312 L 12.847656 15.082031 C 13.09375 14.4375 13.347656 13.773438 13.351562 12.460938 C 13.355469 11.957031 13.292969 11.378906 13.175781 10.75 Z M 21.078125 12.707031 C 21.019531 12.300781 20.960938 11.878906 20.972656 11.421875 C 20.988281 11.007812 21.03125 10.617188 21.078125 10.238281 C 21.109375 9.941406 21.136719 9.65625 21.152344 9.375 C 20.433594 9.433594 19.957031 9.644531 19.730469 9.992188 C 19.824219 9.960938 19.929688 9.9375 20.046875 9.921875 C 20.546875 9.855469 20.910156 10 20.949219 10.277344 C 20.980469 10.480469 20.808594 10.671875 20.734375 10.742188 C 20.578125 10.894531 20.382812 10.988281 20.1875 11.015625 C 20.152344 11.019531 20.113281 11.023438 20.078125 11.023438 C 19.882812 11.023438 19.695312 10.953125 19.550781 10.855469 C 19.613281 11.957031 20.425781 13.425781 20.824219 14.148438 C 20.910156 14.304688 20.976562 14.425781 21.027344 14.53125 C 21.25 13.910156 21.167969 13.339844 21.078125 12.707031 Z M 21.078125 12.707031 "/>
</g>
</svg>
