<?xml version="1.0" encoding="UTF-8"?>
<svg xmlns="http://www.w3.org/2000/svg" xmlns:xlink="http://www.w3.org/1999/xlink" width="30pt" height="30.000001pt" viewBox="0 0 30 30.000001" version="1.2">
<defs>
<clipPath id="clip1">
  <path d="M 8 17 L 9 17 L 9 19.269531 L 8 19.269531 Z M 8 17 "/>
</clipPath>
<clipPath id="clip2">
  <path d="M 2.320312 10 L 18 10 L 18 19.269531 L 2.320312 19.269531 Z M 2.320312 10 "/>
</clipPath>
<clipPath id="clip3">
  <path d="M 9 9.832031 L 11 9.832031 L 11 11 L 9 11 Z M 9 9.832031 "/>
</clipPath>
<clipPath id="clip4">
  <path d="M 2.320312 15 L 4 15 L 4 17 L 2.320312 17 Z M 2.320312 15 "/>
</clipPath>
<clipPath id="clip5">
  <path d="M 10 14 L 15 14 L 15 19.269531 L 10 19.269531 Z M 10 14 "/>
</clipPath>
<clipPath id="clip6">
  <path d="M 21 14 L 25 14 L 25 19.269531 L 21 19.269531 Z M 21 14 "/>
</clipPath>
<clipPath id="clip7">
  <path d="M 19 14 L 21 14 L 21 19.269531 L 19 19.269531 Z M 19 14 "/>
</clipPath>
<clipPath id="clip8">
  <path d="M 15 14 L 19 14 L 19 19.269531 L 15 19.269531 Z M 15 14 "/>
</clipPath>
<clipPath id="clip9">
  <path d="M 24 14 L 27.722656 14 L 27.722656 19.269531 L 24 19.269531 Z M 24 14 "/>
</clipPath>
</defs>
<g id="surface1">
<path style=" stroke:none;fill-rule:nonzero;fill:rgb(78.039551%,4.309082%,0%);fill-opacity:1;" d="M 8.378906 15.445312 C 8.292969 15.695312 8.238281 15.949219 8.183594 16.191406 L 8.707031 16.625 C 8.734375 16.359375 8.78125 16.09375 8.84375 15.832031 Z M 8.378906 15.445312 "/>
<g clip-path="url(#clip1)" clip-rule="nonzero">
<path style=" stroke:none;fill-rule:nonzero;fill:rgb(78.039551%,4.309082%,0%);fill-opacity:1;" d="M 8.085938 17.914062 C 8.097656 18.273438 8.132812 18.5625 8.164062 18.765625 L 8.941406 19.058594 C 8.882812 18.792969 8.824219 18.496094 8.785156 18.175781 Z M 8.085938 17.914062 "/>
</g>
<g clip-path="url(#clip2)" clip-rule="nonzero">
<path style=" stroke:none;fill-rule:nonzero;fill:rgb(78.039551%,4.309082%,0%);fill-opacity:1;" d="M 2.824219 18.9375 C 2.789062 19.144531 2.777344 19.269531 2.777344 19.269531 L 7.894531 19.269531 C 7.894531 19.269531 6.914062 14.597656 10.152344 12.707031 C 10.859375 12.347656 13.109375 11.003906 16.785156 13.851562 C 16.902344 13.75 17.011719 13.667969 17.011719 13.667969 C 17.011719 13.667969 13.644531 10.152344 9.894531 10.542969 C 8.003906 10.71875 5.683594 12.515625 4.324219 14.886719 C 3.289062 16.691406 2.933594 18.273438 2.824219 18.9375 Z M 2.824219 18.9375 "/>
</g>
<path style=" stroke:none;fill-rule:nonzero;fill:rgb(78.039551%,4.309082%,0%);fill-opacity:1;" d="M 5.347656 12.972656 L 4.886719 12.550781 C 4.71875 12.71875 4.558594 12.890625 4.410156 13.058594 L 4.910156 13.503906 C 5.042969 13.320312 5.195312 13.140625 5.347656 12.96875 Z M 5.347656 12.972656 "/>
<path style=" stroke:none;fill-rule:nonzero;fill:rgb(78.039551%,4.309082%,0%);fill-opacity:1;" d="M 9.816406 14.015625 L 9.527344 13.554688 C 9.378906 13.699219 9.242188 13.851562 9.125 14.007812 L 9.433594 14.496094 C 9.546875 14.328125 9.675781 14.171875 9.816406 14.015625 Z M 9.816406 14.015625 "/>
<g clip-path="url(#clip3)" clip-rule="nonzero">
<path style=" stroke:none;fill-rule:nonzero;fill:rgb(78.039551%,4.309082%,0%);fill-opacity:1;" d="M 10.492188 10.246094 L 10.359375 9.832031 C 10.160156 9.832031 9.953125 9.847656 9.738281 9.875 L 9.863281 10.273438 C 10.050781 10.253906 10.238281 10.246094 10.425781 10.246094 Z M 10.492188 10.246094 "/>
</g>
<path style=" stroke:none;fill-rule:nonzero;fill:rgb(78.039551%,4.309082%,0%);fill-opacity:1;" d="M 7.503906 10.492188 C 7.339844 10.578125 7.171875 10.675781 7 10.78125 L 7.296875 11.253906 C 7.464844 11.148438 7.625 11.046875 7.796875 10.957031 Z M 7.503906 10.492188 "/>
<g clip-path="url(#clip4)" clip-rule="nonzero">
<path style=" stroke:none;fill-rule:nonzero;fill:rgb(78.039551%,4.309082%,0%);fill-opacity:1;" d="M 3.390625 16 L 2.648438 15.714844 C 2.523438 16.007812 2.386719 16.347656 2.324219 16.527344 L 3.066406 16.8125 C 3.152344 16.582031 3.289062 16.25 3.390625 16 Z M 3.390625 16 "/>
</g>
<g clip-path="url(#clip5)" clip-rule="nonzero">
<path style=" stroke:none;fill-rule:nonzero;fill:rgb(78.039551%,4.309082%,0%);fill-opacity:1;" d="M 10.582031 19.269531 L 11.824219 19.269531 L 11.824219 18.101562 L 12.898438 19.269531 L 14.738281 19.269531 L 13.292969 17.746094 L 13.292969 17.742188 C 13.292969 17.742188 14.425781 17.644531 14.425781 16.109375 C 14.425781 14.578125 13.054688 14.4375 13.054688 14.4375 L 10.582031 14.4375 Z M 11.824219 15.648438 L 12.820312 15.648438 C 12.820312 15.648438 13.097656 15.753906 13.097656 16.195312 C 13.097656 16.636719 12.8125 16.753906 12.8125 16.753906 L 11.824219 16.753906 Z M 11.824219 15.648438 "/>
</g>
<g clip-path="url(#clip6)" clip-rule="nonzero">
<path style=" stroke:none;fill-rule:nonzero;fill:rgb(78.039551%,4.309082%,0%);fill-opacity:1;" d="M 21.128906 14.46875 L 21.128906 19.269531 L 24.207031 19.269531 L 24.207031 18.027344 L 22.4375 18.027344 L 22.4375 14.46875 Z M 21.128906 14.46875 "/>
</g>
<g clip-path="url(#clip7)" clip-rule="nonzero">
<path style=" stroke:none;fill-rule:nonzero;fill:rgb(78.039551%,4.309082%,0%);fill-opacity:1;" d="M 19.277344 14.46875 L 20.59375 14.46875 L 20.59375 19.269531 L 19.277344 19.269531 Z M 19.277344 14.46875 "/>
</g>
<path style=" stroke:none;fill-rule:nonzero;fill:rgb(78.039551%,4.309082%,0%);fill-opacity:1;" d="M 13.460938 10.46875 C 13.402344 10.4375 13.242188 10.355469 12.835938 10.234375 L 12.808594 10.679688 C 13.019531 10.753906 13.230469 10.835938 13.4375 10.921875 L 13.4375 10.925781 Z M 13.460938 10.46875 "/>
<path style=" stroke:none;fill-rule:nonzero;fill:rgb(78.039551%,4.309082%,0%);fill-opacity:1;" d="M 13.460938 12.449219 C 13.242188 12.402344 13.027344 12.375 12.820312 12.359375 L 12.820312 12.363281 L 12.796875 12.789062 C 13.007812 12.792969 13.222656 12.820312 13.4375 12.871094 Z M 13.460938 12.449219 "/>
<g clip-path="url(#clip8)" clip-rule="nonzero">
<path style=" stroke:none;fill-rule:nonzero;fill:rgb(78.039551%,4.309082%,0%);fill-opacity:1;" d="M 17.496094 14.46875 L 16.234375 14.46875 C 15.335938 14.46875 15.03125 15.324219 15.03125 15.730469 L 15.03125 19.269531 L 16.292969 19.269531 L 16.292969 18.421875 L 17.476562 18.421875 L 17.476562 19.269531 L 18.699219 19.269531 L 18.699219 15.730469 C 18.703125 14.699219 17.808594 14.46875 17.496094 14.46875 Z M 16.285156 17.050781 L 16.285156 15.878906 C 16.285156 15.878906 16.285156 15.613281 16.679688 15.613281 L 17.113281 15.613281 C 17.464844 15.613281 17.472656 15.878906 17.472656 15.878906 L 17.472656 17.050781 Z M 16.285156 17.050781 "/>
</g>
<g clip-path="url(#clip9)" clip-rule="nonzero">
<path style=" stroke:none;fill-rule:nonzero;fill:rgb(78.039551%,4.309082%,0%);fill-opacity:1;" d="M 27.796875 15.703125 L 27.796875 14.46875 L 25.789062 14.46875 C 25.269531 14.46875 24.578125 14.914062 24.578125 15.75 L 24.578125 16.175781 C 24.578125 17.011719 25.261719 17.4375 25.789062 17.4375 C 26.125 17.4375 26.285156 17.441406 26.351562 17.441406 C 26.25 17.4375 26.058594 17.4375 26.785156 17.4375 L 26.785156 18.035156 L 24.640625 18.039062 L 24.640625 19.269531 L 26.757812 19.269531 C 27.191406 19.269531 27.9375 18.9375 27.964844 18.007812 L 27.964844 17.53125 C 27.964844 16.738281 27.339844 16.269531 26.757812 16.269531 L 25.703125 16.269531 L 25.703125 15.703125 Z M 27.796875 15.703125 "/>
</g>
<path style=" stroke:none;fill-rule:nonzero;fill:rgb(78.039551%,4.309082%,0%);fill-opacity:1;" d="M 11.449219 12.972656 L 11.304688 12.527344 C 11.085938 12.59375 10.898438 12.667969 10.734375 12.742188 L 10.882812 13.210938 C 11.074219 13.113281 11.261719 13.03125 11.449219 12.972656 Z M 11.449219 12.972656 "/>
</g>
</svg>
