<?xml version="1.0" encoding="UTF-8"?>
<svg xmlns="http://www.w3.org/2000/svg" xmlns:xlink="http://www.w3.org/1999/xlink" width="30pt" height="30.000001pt" viewBox="0 0 30 30.000001" version="1.2">
<defs>
<clipPath id="clip1">
  <path d="M 6 2.296875 L 22 2.296875 L 22 23 L 6 23 Z M 6 2.296875 "/>
</clipPath>
<clipPath id="clip2">
  <path d="M 11 9 L 28 9 L 28 26.972656 L 11 26.972656 Z M 11 9 "/>
</clipPath>
<clipPath id="clip3">
  <path d="M 1 14 L 22 14 L 22 26.972656 L 1 26.972656 Z M 1 14 "/>
</clipPath>
</defs>
<g id="surface1">
<g clip-path="url(#clip1)" clip-rule="nonzero">
<path style=" stroke:none;fill-rule:nonzero;fill:rgb(49.409485%,34.118652%,76.078796%);fill-opacity:1;" d="M 14.34375 2.296875 C 10.246094 2.296875 6.917969 6.824219 6.917969 12.390625 C 6.917969 15.402344 7.894531 18.101562 9.441406 19.953125 C 9.410156 20.085938 9.390625 20.21875 9.390625 20.363281 C 9.390625 21.394531 10.222656 22.230469 11.25 22.230469 C 12.273438 22.230469 13.105469 21.394531 13.105469 20.363281 C 13.105469 19.328125 12.273438 18.492188 11.25 18.492188 C 11.054688 18.492188 10.871094 18.53125 10.695312 18.585938 C 9.519531 17.078125 8.773438 14.863281 8.773438 12.390625 C 8.773438 7.855469 11.273438 4.164062 14.34375 4.164062 C 16.71875 4.164062 18.742188 6.375 19.542969 9.472656 C 20.238281 9.6875 20.929688 9.957031 21.605469 10.285156 C 20.890625 5.726562 17.90625 2.296875 14.34375 2.296875 Z M 14.34375 2.296875 "/>
</g>
<g clip-path="url(#clip2)" clip-rule="nonzero">
<path style=" stroke:none;fill-rule:nonzero;fill:rgb(49.409485%,34.118652%,76.078796%);fill-opacity:1;" d="M 22.082031 12.316406 C 19.640625 10.824219 16.902344 10.171875 14.542969 10.472656 C 14.203125 10.046875 13.6875 9.773438 13.105469 9.773438 C 12.078125 9.773438 11.25 10.609375 11.25 11.640625 C 11.25 12.671875 12.078125 13.507812 13.105469 13.507812 C 13.894531 13.507812 14.5625 13.015625 14.832031 12.320312 C 16.761719 12.082031 19.046875 12.648438 21.121094 13.914062 C 25.085938 16.332031 27.105469 20.5 25.628906 23.203125 C 25.117188 24.140625 24.214844 24.804688 23.015625 25.128906 C 21.601562 25.507812 19.917969 25.375 18.234375 24.800781 C 17.714844 25.28125 17.152344 25.734375 16.550781 26.148438 C 18.128906 26.847656 19.765625 27.210938 21.296875 27.210938 C 22.0625 27.210938 22.804688 27.121094 23.496094 26.933594 C 25.195312 26.476562 26.492188 25.5 27.253906 24.105469 C 29.207031 20.535156 26.886719 15.246094 22.082031 12.316406 Z M 22.082031 12.316406 "/>
</g>
<g clip-path="url(#clip3)" clip-rule="nonzero">
<path style=" stroke:none;fill-rule:nonzero;fill:rgb(49.409485%,34.118652%,76.078796%);fill-opacity:1;" d="M 21.769531 17.863281 C 21.769531 16.835938 20.9375 16 19.914062 16 C 18.886719 16 18.054688 16.835938 18.054688 17.863281 C 18.054688 18.28125 18.199219 18.664062 18.429688 18.972656 C 17.636719 20.71875 16.109375 22.441406 14.058594 23.695312 C 11.664062 25.152344 8.992188 25.6875 6.90625 25.128906 C 5.710938 24.804688 4.808594 24.140625 4.296875 23.203125 C 3.242188 21.277344 3.972656 18.609375 5.910156 16.359375 C 5.710938 15.644531 5.5625 14.902344 5.472656 14.132812 C 2.335938 17.121094 1.074219 21.183594 2.667969 24.105469 C 3.429688 25.5 4.730469 26.476562 6.425781 26.933594 C 7.121094 27.121094 7.859375 27.210938 8.628906 27.210938 C 10.699219 27.210938 12.964844 26.546875 15.019531 25.292969 C 17.394531 23.84375 19.15625 21.820312 20.101562 19.710938 C 21.035156 19.613281 21.769531 18.828125 21.769531 17.863281 Z M 21.769531 17.863281 "/>
</g>
</g>
</svg>
