<?xml version="1.0" encoding="UTF-8"?>
<svg xmlns="http://www.w3.org/2000/svg" xmlns:xlink="http://www.w3.org/1999/xlink" width="30pt" height="30.000001pt" viewBox="0 0 30 30.000001" version="1.2">
<defs>
<clipPath id="clip1">
  <path d="M 15 2.140625 L 21 2.140625 L 21 15 L 15 15 Z M 15 2.140625 "/>
</clipPath>
<clipPath id="clip2">
  <path d="M 22 9 L 27.234375 9 L 27.234375 15 L 22 15 Z M 22 9 "/>
</clipPath>
<clipPath id="clip3">
  <path d="M 2.625 8 L 15 8 L 15 14 L 2.625 14 Z M 2.625 8 "/>
</clipPath>
<clipPath id="clip4">
  <path d="M 9 2.140625 L 15 2.140625 L 15 8 L 9 8 Z M 9 2.140625 "/>
</clipPath>
<clipPath id="clip5">
  <path d="M 8 14 L 14 14 L 14 26.75 L 8 26.75 Z M 8 14 "/>
</clipPath>
<clipPath id="clip6">
  <path d="M 2.625 14 L 8 14 L 8 20 L 2.625 20 Z M 2.625 14 "/>
</clipPath>
<clipPath id="clip7">
  <path d="M 15 15 L 27.234375 15 L 27.234375 21 L 15 21 Z M 15 15 "/>
</clipPath>
<clipPath id="clip8">
  <path d="M 15 21 L 21 21 L 21 26.75 L 15 26.75 Z M 15 21 "/>
</clipPath>
</defs>
<g id="surface1">
<g clip-path="url(#clip1)" clip-rule="nonzero">
<path style=" stroke:none;fill-rule:nonzero;fill:rgb(19.999695%,82.749939%,45.878601%);fill-opacity:1;" d="M 20.925781 4.664062 C 20.925781 3.269531 19.792969 2.140625 18.398438 2.140625 C 17.007812 2.140625 15.875 3.269531 15.875 4.664062 C 15.875 5.457031 15.875 10.8125 15.875 11.605469 C 15.875 13 17.007812 14.128906 18.398438 14.128906 C 19.792969 14.128906 20.925781 13 20.925781 11.605469 C 20.925781 10.8125 20.925781 5.457031 20.925781 4.664062 Z M 20.925781 4.664062 "/>
</g>
<g clip-path="url(#clip2)" clip-rule="nonzero">
<path style=" stroke:none;fill-rule:nonzero;fill:rgb(19.999695%,82.749939%,45.878601%);fill-opacity:1;" d="M 27.234375 11.605469 C 27.234375 13 26.105469 14.128906 24.710938 14.128906 C 23.957031 14.128906 22.1875 14.128906 22.1875 14.128906 C 22.1875 14.128906 22.1875 12.246094 22.1875 11.605469 C 22.1875 10.210938 23.316406 9.082031 24.710938 9.082031 C 26.105469 9.082031 27.234375 10.210938 27.234375 11.605469 Z M 27.234375 11.605469 "/>
</g>
<g clip-path="url(#clip3)" clip-rule="nonzero">
<path style=" stroke:none;fill-rule:nonzero;fill:rgb(25.099182%,76.858521%,100%);fill-opacity:1;" d="M 5.148438 8.453125 C 3.753906 8.453125 2.625 9.582031 2.625 10.976562 C 2.625 12.371094 3.753906 13.5 5.148438 13.5 C 5.941406 13.5 11.296875 13.5 12.089844 13.5 C 13.484375 13.5 14.613281 12.371094 14.613281 10.976562 C 14.613281 9.582031 13.484375 8.453125 12.089844 8.453125 C 11.296875 8.453125 5.941406 8.453125 5.148438 8.453125 Z M 5.148438 8.453125 "/>
</g>
<g clip-path="url(#clip4)" clip-rule="nonzero">
<path style=" stroke:none;fill-rule:nonzero;fill:rgb(25.099182%,76.858521%,100%);fill-opacity:1;" d="M 12.089844 2.140625 C 13.484375 2.140625 14.613281 3.269531 14.613281 4.664062 C 14.613281 5.417969 14.613281 7.1875 14.613281 7.1875 C 14.613281 7.1875 12.730469 7.1875 12.089844 7.1875 C 10.695312 7.1875 9.566406 6.058594 9.566406 4.664062 C 9.566406 3.269531 10.695312 2.140625 12.089844 2.140625 Z M 12.089844 2.140625 "/>
</g>
<g clip-path="url(#clip5)" clip-rule="nonzero">
<path style=" stroke:none;fill-rule:nonzero;fill:rgb(91.369629%,11.759949%,38.819885%);fill-opacity:1;" d="M 8.933594 24.230469 C 8.933594 25.621094 10.066406 26.75 11.460938 26.75 C 12.851562 26.75 13.984375 25.621094 13.984375 24.230469 C 13.984375 23.441406 13.984375 18.09375 13.984375 17.300781 C 13.984375 15.90625 12.851562 14.777344 11.460938 14.777344 C 10.066406 14.777344 8.933594 15.90625 8.933594 17.300781 C 8.933594 18.09375 8.933594 23.441406 8.933594 24.230469 Z M 8.933594 24.230469 "/>
</g>
<g clip-path="url(#clip6)" clip-rule="nonzero">
<path style=" stroke:none;fill-rule:nonzero;fill:rgb(91.369629%,11.759949%,38.819885%);fill-opacity:1;" d="M 2.625 17.300781 C 2.625 15.90625 3.753906 14.777344 5.148438 14.777344 C 5.902344 14.777344 7.671875 14.777344 7.671875 14.777344 C 7.671875 14.777344 7.671875 16.660156 7.671875 17.300781 C 7.671875 18.691406 6.542969 19.820312 5.148438 19.820312 C 3.753906 19.820312 2.625 18.691406 2.625 17.300781 Z M 2.625 17.300781 "/>
</g>
<g clip-path="url(#clip7)" clip-rule="nonzero">
<path style=" stroke:none;fill-rule:nonzero;fill:rgb(100%,75.689697%,2.749634%);fill-opacity:1;" d="M 24.710938 20.441406 C 26.105469 20.441406 27.234375 19.308594 27.234375 17.917969 C 27.234375 16.523438 26.105469 15.390625 24.710938 15.390625 C 23.917969 15.390625 18.5625 15.390625 17.769531 15.390625 C 16.375 15.390625 15.246094 16.523438 15.246094 17.917969 C 15.246094 19.308594 16.375 20.441406 17.769531 20.441406 C 18.5625 20.441406 23.917969 20.441406 24.710938 20.441406 Z M 24.710938 20.441406 "/>
</g>
<g clip-path="url(#clip8)" clip-rule="nonzero">
<path style=" stroke:none;fill-rule:nonzero;fill:rgb(100%,75.689697%,2.749634%);fill-opacity:1;" d="M 17.769531 26.75 C 16.375 26.75 15.246094 25.621094 15.246094 24.226562 C 15.246094 23.472656 15.246094 21.703125 15.246094 21.703125 C 15.246094 21.703125 17.128906 21.703125 17.769531 21.703125 C 19.164062 21.703125 20.292969 22.832031 20.292969 24.226562 C 20.292969 25.621094 19.164062 26.75 17.769531 26.75 Z M 17.769531 26.75 "/>
</g>
</g>
</svg>
